Simulation
nRows=46
nColumns=15
endheader
time  TH_x TH_y TH_z SC_y  SC_z  SC_x  AC_y  AC_z  AC_x  GH_y  GH_z  GH_yy  EL_x  PS_y
2.0666666666666664  0.000000  0.000000  0.000000  -26.54141698552798  13.19165021790179  26.135223327073096  64.41036530927323  10.502568584579393  17.70614341540098  44.28300583659697  69.97667355430066  -18.764371935130338  16.283112853687758  120.000000
2.1071895424836597  0.000000  0.000000  0.000000  -26.5821506669803  13.194815882320604  26.19827413056855  64.36341229067692  10.508995793509312  17.71030415088824  44.33452253683852  69.95293516456015  -18.787798365595012  16.32284719675548  120.000000
2.1477124183006535  0.000000  0.000000  0.000000  -26.62400146238424  13.186858048488581  26.24755390591204  64.28887829720814  10.534804017923072  17.70003870386858  44.384391586914234  69.90961863112749  -18.88151136114111  16.366073535189482  120.000000
2.188235294117647  0.000000  0.000000  0.000000  -26.654052511798195  13.162281027350673  26.271299095619764  64.19131554683831  10.572270403649714  17.659979399119177  44.421697007520805  69.84800158436501  -19.066773433359774  16.394941858688153  120.000000
2.22875816993464  0.000000  0.000000  0.000000  -26.659900407243178  13.115984592270884  26.25956845999545  64.07507644747356  10.612980558939974  17.5747703154737  44.436180664867784  69.76895975175971  -19.363318679815478  16.392621377358896  120.000000
2.269281045751634  0.000000  0.000000  0.000000  -26.631047185774626  13.043636905056141  26.205367938585333  63.94362879220489  10.648961269392183  17.430617807372162  44.419859680881046  69.67234052808699  -19.787831886996333  16.34527580503809  120.000000
2.3098039215686272  0.000000  0.000000  0.000000  -26.560300253441188  12.941935500740488  26.105459653231023  63.798565914105744  10.673735451519736  17.216709934020866  44.36834124289788  69.55602890912488  -20.352135383421064  16.244528580690194  120.000000
2.3503267973856206  0.000000  0.000000  0.000000  -26.44454248621376  12.808743237184053  25.960545518363297  63.63894187206654  10.683146627750922  16.925945654386446  44.281524749395786  69.41533773916994  -21.06221763471218  16.089059193713982  120.000000
2.390849673202614  0.000000  0.000000  0.000000  -26.28440580692889  12.643116420179078  25.77461676281177  63.46125633352205  10.67558971719952  16.555219636952813  44.16353427381732  69.24298961516928  -21.918366884761316  15.884216045646337  120.000000
2.4313725490196076  0.000000  0.000000  0.000000  -26.0831088569257  12.44527831194676  25.553714257313416  63.26019798241025  10.651783640166014  16.105016284034146  44.02192952092366  69.02985851141295  -22.91645487496027  15.639942863633264  120.000000
2.471895424836601  0.000000  0.000000  0.000000  -25.84521476810263  12.216511193281653  25.30459141237207  63.02969539916917  10.614242373307606  15.578771085506455  43.8665943105611  68.7660752778648  -24.049323351273806  15.368464648491187  120.000000
2.5124183006535943  0.000000  0.000000  0.000000  -25.57583361457016  11.959039587851851  25.033725257083088  62.76408178413511  10.56678996621076  14.982093003250123  43.70855338302082  68.44225992315774  -25.307634943598323  15.082639166280272  120.000000
2.552941176470588  0.000000  0.000000  0.000000  -25.28035429477568  11.67585303330077  24.74667962016553  62.459266890261446  10.514089852205654  14.322252736971338  43.55895231175345  68.05085874595808  -26.67957336113548  14.794942710485117  120.000000
2.5934640522875814  0.000000  0.000000  0.000000  -24.96452293618026  11.370553553630518  24.447820071458167  62.11400745803012  10.461162218013536  13.607979645433689  43.4281802131195  67.58752787116757  -28.149774461895596  14.516529912630194  120.000000
2.6339869281045747  0.000000  0.000000  0.000000  -24.634590383455315  11.047307574572812  24.140272223790284  61.731021954786264  10.412791899946201  12.849635576408401  43.32521638429932  67.0524231456916  -29.697890629287247  14.256153761584347  120.000000
2.6745098039215685  0.000000  0.000000  0.000000  -24.2974157970403  10.710792709429244  23.826118086601  61.317746992346486  10.372968599341254  12.05945777789726  43.2571256373123  66.45105852241677  -31.297654917728092  14.019328818028779  120.000000
2.7150326797385618  0.000000  0.000000  0.000000  -23.960500851031778  10.366108404137263  23.50672851047808  60.88620754499171  10.344474023009239  11.251632710675047  43.228848639275114  65.7944138285977  -32.91679963333733  13.80838723783846  120.000000
2.755555555555555  0.000000  0.000000  0.000000  -23.631905727023618  10.018713869233379  23.183149988139494  60.45194715695236  10.328649165748262  10.442028117139195  43.24308170988185  65.09815775724977  -34.51793163668802  13.623551919099377  120.000000
2.796078431372549  0.000000  0.000000  0.000000  -23.319958977510982  9.674306032382493  22.856479601350006  60.03233170831462  10.325388087268175  9.647564586417534  43.300357212173694  64.38121099672048  -36.060316224227066  13.46413040978281  120.000000
2.836601307189542  0.000000  0.000000  0.000000  -23.032683040720645  9.338667018792055  22.528140445809733  59.644679335087936  10.33329528629962  8.88538396498803  43.39906650122695  63.66396833870462  -37.5024311616932  13.329201247702164  120.000000
2.8771241830065355  0.000000  0.000000  0.000000  -22.777083570873817  9.017477956536393  22.200041042594744  59.30429702582963  10.350078117778711  8.17183390991964  43.535648914751555  62.96639964423731  -38.80526301131392  13.217757790146184  120.000000
2.917647058823529  0.000000  0.000000  0.000000  -22.558414921964815  8.716103701628779  21.874573706517427  59.02264722856895  10.37307489219409  7.521349047311124  43.70468877196168  62.30628292565138  -39.936372578738634  13.128746324152097  120.000000
2.9581699346405226  0.000000  0.000000  0.000000  -22.37961406513657  8.43935609325916  21.55457826197101  58.80582306879413  10.39989320444404  6.945348934097403  43.89919427080616  61.69771905707678  -40.874134389567025  13.06102059637531  120.000000
2.998692810457516  0.000000  0.000000  0.000000  -22.241015360902747  8.191365821103695  21.243341795118226  58.653753176045505  10.428884072584545  6.451502393757456  44.11104132217391  61.15021887953172  -41.610876491038766  13.013346185648391  120.000000
3.039215686274509  0.000000  0.000000  0.000000  -22.140475148153914  7.975532000218178  20.944707055325757  58.560539862916144  10.459384955671267  6.04351380492033  44.33165530135184  60.668549269686686  -42.153302572056  12.98452972798953  120.000000
3.079738562091503  0.000000  0.000000  0.000000  -22.07385246152491  7.794502021989768  20.663180326952595  58.51579408958441  10.491728459148788  5.721467633868725  44.552775233176696  60.2532943951744  -42.52001267314613  12.973548840919658  120.000000
3.1202614379084963  0.000000  0.000000  0.000000  -22.03561516415453  7.650100336861596  20.403956334327233  58.506461768835294  10.527029253838363  5.4824889685119675  44.76700799352199  59.90177449397284  -42.73776876902667  12.979482046567787  120.000000
3.1607843137254896  0.000000  0.000000  0.000000  -22.01950536853573  7.543137352135991  20.172757972651674  58.51865333372357  10.566804760165896  5.321376555543386  44.96811764230657  59.60904990141502  -42.8377613161874  13.001254832435537  120.000000
3.2013071895424834  0.000000  0.000000  0.000000  -22.01922652691889  7.4731430936310845  19.975399790745236  58.53930120258316  10.612508719108426  5.231049074216553  45.151062810124635  59.36883312673898  -42.85227407219667  13.037505151296878  120.000000
3.2418300653594767  0.000000  0.000000  0.000000  -22.02906372770153  7.438078123033838  19.81705851111827  58.557488069697676  10.66504111256325  5.202811995618917  45.3119752263434  59.17434887132713  -42.81169655442169  13.086533669020575  120.000000
3.28235294117647  0.000000  0.000000  0.000000  -22.04438469133409  7.434147480488537  19.701388375464543  58.56544078188222  10.72434346838805  5.22654448472318  45.448104765566164  59.01909915764365  -42.74218689591145  13.146273257803578  120.000000
3.322875816993464  0.000000  0.000000  0.000000  -22.061939098469452  7.455779308160154  19.629723792042746  58.55898864836931  10.789230424248721  5.290916742930271  45.557797290220094  58.897433767943596  -42.66422349918041  13.214238899099776  120.000000
3.363398692810457  0.000000  0.000000  0.000000  -22.079902123068358  7.495777082499035  19.600697504843986  58.53747021509777  10.857645536470178  5.3836616153152725  45.64048713538681  58.804682174206775  -42.59256899353274  13.287565463639035  120.000000
3.4039215686274504  0.000000  0.000000  0.000000  -22.097703941518894  7.54564217186392  19.61036543397742  58.503110893758986  10.927170670562662  5.491922323945877  45.69672029174104  58.73694849231937  -42.53738707558268  13.36313965154614  120.000000
3.444444444444444  0.000000  0.000000  0.000000  -22.11580148197372  7.596112099122454  19.652754676983555  58.46015423942955  10.995558780240192  5.602630514104417  45.72822761599666  58.690741820053724  -42.505901273981834  13.437758782590416  120.000000
3.4849673202614375  0.000000  0.000000  0.000000  -22.135404373535813  7.637833185045176  19.720599206042056  58.41393782720756  11.060981974332925  5.702946180698395  45.73804492315504  58.66267948085634  -42.503930808077406  13.508256607778227  120.000000
3.525490196078431  0.000000  0.000000  0.000000  -22.158098080725605  7.662136943315722  19.806140998435005  58.370085683077704  11.12199583067966  5.780762533178071  45.730743978828414  58.64919781475383  -42.53710958246743  13.571539401627664  120.000000
3.5660130718954246  0.000000  0.000000  0.000000  -22.185262933433787  7.661743875618766  19.901867487601145  58.33388502979336  11.177178482820121  5.825282837625755  45.71269460052189  58.64632330261045  -42.611657876932235  13.624519816790537  120.000000
3.606535947712418  0.000000  0.000000  0.000000  -22.217338423009842  7.631351767144109  20.000906875721746  58.30987745028271  11.224866043269163  5.8276810715690415  45.692259631992  58.649422814596534  -42.734852492903656  13.663842443092634  120.000000
3.6470588235294112  0.000000  0.000000  0.000000  -22.253173202648767  7.568117975560966  20.097799463080808  58.30156283684582  11.262204146227587  5.7812804754337055  45.67974025668546  58.652975323537945  -42.915073690675584  13.685575870347428  120.000000
3.6875816993464046  0.000000  0.000000  0.000000  -22.289836626233754  7.47158998694127  20.1887994906481  58.311354508233684  11.284437035946791  5.681252015813272  45.68699703953499  58.65052421112136  -43.16171788294604  13.685125790417676  120.000000
3.7281045751633983  0.000000  0.000000  0.000000  -22.32288745913231  7.34362728412184  20.26978169414069  58.3402923068504  11.286116680067064  5.525312695678661  45.72686407054565  58.634953198428505  -43.484678423966386  13.657316823833899  120.000000
3.7686274509803916  0.000000  0.000000  0.000000  -22.347047804470996  7.188105574463057  20.334730869453374  58.388086936813735  11.262253042963824  5.31419654875706  45.812476144193255  58.59921540222828  -43.89371556528475  13.596483367013583  120.000000
3.809150326797385  0.000000  0.000000  0.000000  -22.357121547518524  7.010008743590232  20.37648451568189  58.45371695116119  11.208349459599305  5.051044379650398  45.956598053437006  58.53743616936365  -44.39747993446188  13.496899690909421  120.000000
3.8496732026143787  0.000000  0.000000  0.000000  -22.348573532539167  6.814872227439283  20.387565621900293  58.536002591304864  11.120905669482925  4.7412964208801816  46.170918854598995  58.44607866881514  -45.00220042214937  13.353288843366814  120.000000
3.890196078431372  0.000000  0.000000  0.000000  -22.318349856185122  6.60772724759029  20.36089176394353  58.63467132529396  10.998385944313405  4.393091724880121  46.46587162658977  58.32525598703599  -45.7103855160048  13.16164891364406  120.000000
